<?xml version="1.0" standalone="no"?>
<!DOCTYPE svg PUBLIC "-//W3C//DTD SVG 20010904//EN"
 "http://www.w3.org/TR/2001/REC-SVG-20010904/DTD/svg10.dtd">
<svg version="1.0" xmlns="http://www.w3.org/2000/svg"
 width="330.000000pt" height="252.000000pt" viewBox="0 0 330.000000 252.000000"
 preserveAspectRatio="xMidYMid meet">

<g transform="translate(0.000000,252.000000) scale(0.100000,-0.100000)"
fill="#000000" stroke="none">
<path d="M402 2421 c-62 -21 -85 -41 -121 -101 l-26 -45 -3 -341 c-3 -326 -2
-342 18 -397 14 -37 34 -67 58 -87 76 -63 24 -61 1293 -58 l1155 3 49 26 c30
15 62 42 80 68 l30 43 0 381 0 382 -30 44 c-19 29 -48 54 -80 70 l-49 26
-1161 2 c-1100 2 -1163 2 -1213 -16z m2248 -656 l0 -75 -1052 2 -1053 3 -3 59
c-2 32 -1 65 2 72 5 12 179 14 1056 14 l1050 0 0 -75z"/>
<path d="M1230 831 c0 -300 -3 -418 -12 -438 -22 -51 -59 -92 -102 -112 -71
-35 -144 -23 -204 33 -46 43 -62 77 -62 134 0 85 29 131 113 182 54 32 71 61
64 113 -7 53 -52 97 -99 97 -49 0 -117 -38 -179 -100 -85 -84 -119 -166 -119
-285 0 -114 31 -191 109 -277 60 -65 128 -104 216 -123 64 -13 85 -13 170 1
106 17 222 109 274 217 47 97 52 154 49 577 l-3 385 -107 3 -108 3 0 -410z"/>
<path d="M1757 1234 c-11 -11 -8 -645 3 -705 40 -212 259 -368 463 -330 205
39 347 204 347 406 0 153 -88 296 -222 363 -66 32 -103 29 -144 -12 -28 -28
-34 -41 -34 -78 0 -51 19 -77 80 -108 103 -52 132 -201 57 -287 -76 -86 -195
-95 -275 -20 -56 52 -57 55 -62 427 l-5 345 -101 3 c-55 1 -103 0 -107 -4z"/>
</g>
</svg>
