<?xml version="1.0" standalone="no"?>
<!DOCTYPE svg PUBLIC "-//W3C//DTD SVG 20010904//EN"
 "http://www.w3.org/TR/2001/REC-SVG-20010904/DTD/svg10.dtd">
<svg version="1.0" xmlns="http://www.w3.org/2000/svg"
 width="219.000000pt" height="192.000000pt" viewBox="0 0 219.000000 192.000000"
 preserveAspectRatio="xMidYMid meet">

<g transform="translate(0.000000,192.000000) scale(0.100000,-0.100000)"
fill="#000000" stroke="none">
<path d="M587 1806 c-49 -18 -108 -59 -134 -94 -50 -68 -59 -102 -88 -342 -8
-63 -21 -171 -30 -240 -21 -169 -44 -352 -53 -427 -8 -57 -7 -62 12 -67 31 -8
209 -7 222 2 12 7 28 91 44 232 5 47 25 208 45 357 19 150 35 275 35 277 0 3
7 12 16 20 11 12 26 14 57 10 79 -12 80 -15 74 -113 -4 -47 -13 -135 -22 -196
-16 -113 -34 -250 -61 -458 -8 -65 -12 -122 -9 -127 8 -13 1185 -13 1205 -1
12 8 12 23 2 98 -6 48 -28 219 -47 378 -64 525 -69 548 -139 618 -20 20 -56
47 -79 59 -42 23 -45 23 -527 25 -391 2 -492 0 -523 -11z"/>
<path d="M100 472 c-8 -2 -23 -11 -32 -20 -16 -13 -18 -36 -18 -192 0 -160 2
-180 19 -201 l19 -24 1007 0 1007 0 19 24 c17 21 19 41 19 196 0 152 -2 175
-18 195 l-18 23 -995 2 c-547 1 -1001 0 -1009 -3z"/>
</g>
</svg>
