<?xml version="1.0" standalone="no"?>
<!DOCTYPE svg PUBLIC "-//W3C//DTD SVG 20010904//EN"
 "http://www.w3.org/TR/2001/REC-SVG-20010904/DTD/svg10.dtd">
<svg version="1.0" xmlns="http://www.w3.org/2000/svg"
 width="311.000000pt" height="225.000000pt" viewBox="0 0 311.000000 225.000000"
 preserveAspectRatio="xMidYMid meet">

<g transform="translate(0.000000,225.000000) scale(0.100000,-0.100000)"
fill="#000000" stroke="none">
<path d="M272 2135 c-62 -27 -79 -126 -29 -172 12 -12 78 -57 145 -102 144
-95 178 -102 234 -52 28 25 33 36 33 74 0 59 -15 75 -169 175 -132 87 -164 99
-214 77z"/>
<path d="M2745 2130 c-94 -49 -250 -166 -269 -201 -35 -65 6 -137 84 -146 43
-4 51 0 175 82 72 47 138 95 148 107 11 13 17 37 17 67 0 86 -77 131 -155 91z"/>
<path d="M1024 1816 c-63 -29 -109 -76 -139 -141 -24 -51 -34 -106 -60 -320
-8 -66 -21 -174 -29 -240 -9 -66 -20 -158 -26 -205 -5 -47 -15 -120 -21 -164
-10 -65 -9 -80 2 -87 22 -14 213 -11 231 4 10 8 19 45 27 107 6 52 25 196 41
320 16 124 34 268 41 320 16 137 18 140 78 140 33 0 56 -6 72 -19 23 -19 23
-19 10 -117 -7 -55 -19 -146 -26 -204 -8 -58 -21 -157 -29 -220 -9 -63 -22
-162 -29 -220 -11 -77 -11 -107 -3 -112 15 -10 1188 -10 1203 0 8 5 9 25 3 72
-4 36 -13 106 -19 155 -6 50 -15 124 -21 165 -6 41 -22 170 -35 285 -29 239
-41 308 -62 348 -26 50 -87 110 -138 133 l-50 24 -485 0 -485 0 -51 -24z"/>
<path d="M120 1343 c-78 -40 -74 -156 6 -189 30 -13 72 -15 216 -12 l180 3 24
28 c46 54 42 122 -9 161 -26 19 -44 21 -205 24 -154 2 -182 0 -212 -15z"/>
<path d="M2605 1351 c-40 -17 -60 -51 -60 -102 0 -40 5 -54 28 -76 l27 -28
166 -3 c92 -2 182 -1 201 3 52 9 83 48 83 102 0 53 -21 88 -62 102 -36 13
-353 14 -383 2z"/>
<path d="M553 485 c-28 -12 -32 -19 -38 -68 -4 -30 -5 -116 -4 -191 3 -113 7
-138 22 -153 17 -17 73 -18 995 -21 537 -1 991 0 1009 3 61 11 63 18 63 218 0
100 -4 187 -8 194 -4 6 -19 16 -32 21 -15 6 -422 10 -1000 10 -808 1 -980 -1
-1007 -13z"/>
</g>
</svg>
