<?xml version="1.0" encoding="utf-8"?>
<svg viewBox="0 0 500 500" xmlns="http://www.w3.org/2000/svg">
  <path d="M 287.847 46.523 C 307.834 46.523 324.049 62.731 324.049 82.724 L 324.049 118.925 L 362.286 118.925 C 375.107 118.925 386.722 123.979 396.451 133.029 L 454.75 191.328 C 463.801 200.378 468.853 212.671 468.853 225.493 L 468.853 311.998 C 482.202 311.998 492.988 322.783 492.988 336.132 C 492.988 349.482 482.202 360.266 468.853 360.266 L 444.719 360.266 C 444.719 400.239 412.289 432.669 372.316 432.669 C 331.666 432.669 299.915 400.239 299.915 360.266 L 203.378 360.266 C 203.378 400.239 170.947 432.669 130.975 432.669 C 90.325 432.669 58.573 400.239 58.573 360.266 L 46.506 360.266 C 26.513 360.266 10.305 344.051 10.305 324.065 L 10.305 82.724 C 10.305 62.731 26.513 46.523 46.506 46.523 L 287.847 46.523 Z M 324.049 167.193 L 324.049 239.596 L 420.585 239.596 L 420.585 225.493 L 362.286 167.193 L 324.049 167.193 Z M 130.975 324.065 C 110.99 324.065 94.774 340.281 94.774 360.266 C 94.774 380.253 110.99 396.468 130.975 396.468 C 150.962 396.468 167.177 380.253 167.177 360.266 C 167.177 340.281 150.962 324.065 130.975 324.065 Z M 372.316 396.468 C 392.303 396.468 408.518 380.253 408.518 360.266 C 408.518 340.281 392.303 324.065 372.316 324.065 C 352.331 324.065 336.116 340.281 336.116 360.266 C 336.116 380.253 352.331 396.468 372.316 396.468 Z" style="fill: rgb(13, 110, 253);"/>
</svg>