<?xml version="1.0" standalone="no"?>
<!DOCTYPE svg PUBLIC "-//W3C//DTD SVG 20010904//EN"
 "http://www.w3.org/TR/2001/REC-SVG-20010904/DTD/svg10.dtd">
<svg version="1.0" xmlns="http://www.w3.org/2000/svg"
 width="306.000000pt" height="249.000000pt" viewBox="0 0 306.000000 249.000000"
 preserveAspectRatio="xMidYMid meet">

<g transform="translate(0.000000,249.000000) scale(0.100000,-0.100000)"
fill="#000000" stroke="none">
<path d="M555 2434 c-240 -34 -419 -179 -497 -404 -32 -91 -32 -286 0 -374 32
-86 85 -175 130 -219 l40 -39 73 41 c41 22 110 52 154 67 70 23 99 27 229 30
l148 3 44 74 c80 138 196 242 346 311 101 47 190 66 311 66 107 0 162 -11 276
-55 l70 -27 33 32 c18 17 50 43 70 57 l38 25 -19 27 c-63 86 -190 176 -301
211 -163 52 -365 21 -503 -76 -26 -19 -51 -34 -56 -34 -4 0 -21 18 -36 41 -67
96 -190 184 -305 219 -66 19 -190 32 -245 24z"/>
<path d="M2250 1961 c-30 -10 -78 -30 -107 -44 -59 -30 -172 -132 -204 -183
-25 -40 -31 -41 -72 -10 -48 36 -130 74 -194 91 -70 18 -208 21 -283 5 -137
-29 -282 -131 -362 -254 -21 -33 -38 -62 -38 -66 0 -4 33 -24 73 -43 39 -20
83 -43 97 -52 24 -16 28 -15 105 30 44 25 116 58 160 72 73 25 93 27 245 28
147 0 173 -3 234 -23 144 -48 266 -124 370 -230 32 -33 64 -59 70 -56 6 2 45
8 87 13 156 18 327 -28 460 -125 l46 -34 27 62 c32 73 56 180 56 248 0 61 -23
183 -45 235 -69 163 -222 296 -392 340 -81 21 -262 19 -333 -4z"/>
<path d="M608 1380 c-161 -29 -275 -86 -379 -190 -82 -82 -133 -163 -170 -275
-31 -93 -34 -287 -5 -380 37 -123 86 -205 171 -290 81 -81 149 -125 262 -168
58 -22 58 -22 1043 -27 542 -3 1012 -2 1045 2 345 43 544 423 391 742 -37 77
-115 164 -194 216 -113 75 -291 96 -431 50 l-75 -24 -20 29 c-91 125 -176 202
-279 253 -240 117 -542 76 -733 -100 l-43 -40 -63 52 c-143 116 -361 179 -520
150z"/>
</g>
</svg>
