<?xml version="1.0" encoding="utf-8"?>
<svg viewBox="0 0 500 500" xmlns="http://www.w3.org/2000/svg">
  <path d="M 180.303 79.734 C 180.303 55.634 199.848 36.099 223.938 36.099 L 253.028 36.099 C 277.118 36.099 296.663 55.634 296.663 79.734 L 296.663 399.724 C 296.663 423.814 277.118 443.359 253.028 443.359 L 223.938 443.359 C 199.848 443.359 180.303 423.814 180.303 399.724 L 180.303 79.734 Z M 34.853 254.274 C 34.853 230.184 54.389 210.639 78.488 210.639 L 107.578 210.639 C 131.668 210.639 151.213 230.184 151.213 254.274 L 151.213 399.724 C 151.213 423.814 131.668 443.359 107.578 443.359 L 78.488 443.359 C 54.389 443.359 34.853 423.814 34.853 399.724 L 34.853 254.274 Z M 398.478 94.279 C 422.569 94.279 442.113 113.824 442.113 137.914 L 442.113 399.724 C 442.113 423.814 422.569 443.359 398.478 443.359 L 369.388 443.359 C 345.298 443.359 325.753 423.814 325.753 399.724 L 325.753 137.914 C 325.753 113.824 345.298 94.279 369.388 94.279 L 398.478 94.279 Z" style="fill: rgb(13, 110, 253);"/>
</svg>