<?xml version="1.0" standalone="no"?>
<!DOCTYPE svg PUBLIC "-//W3C//DTD SVG 20010904//EN"
 "http://www.w3.org/TR/2001/REC-SVG-20010904/DTD/svg10.dtd">
<svg version="1.0" xmlns="http://www.w3.org/2000/svg"
 width="212.000000pt" height="250.000000pt" viewBox="0 0 212.000000 250.000000"
 preserveAspectRatio="xMidYMid meet">

<g transform="translate(0.000000,250.000000) scale(0.100000,-0.100000)"
fill="#000000" stroke="none">
<path d="M140 2219 c0 -268 5 -292 64 -328 17 -11 56 -24 86 -30 83 -16 381
-78 413 -86 l27 -7 0 146 c0 172 15 153 -155 186 -60 12 -118 23 -127 26 -16
5 -18 24 -20 167 l-3 162 -142 3 -143 3 0 -242z"/>
<path d="M1647 2454 c-4 -4 -7 -76 -7 -159 0 -110 -3 -155 -12 -162 -7 -6 -53
-18 -103 -27 -49 -10 -111 -22 -137 -28 l-48 -10 0 -149 0 -149 23 5 c42 10
362 76 421 87 70 13 121 52 136 106 7 23 10 123 8 262 l-3 225 -136 3 c-74 1
-138 -1 -142 -4z"/>
<path d="M997 2300 c-23 -4 -51 -20 -70 -39 l-32 -31 -3 -335 -3 -335 -167 0
c-139 0 -173 -3 -202 -18 -100 -50 -108 -197 -13 -259 25 -17 62 -18 523 -18
547 0 533 -2 577 64 44 65 26 156 -39 203 -31 22 -43 23 -210 26 l-178 4 0
314 c0 344 -3 364 -56 401 -36 25 -77 32 -127 23z"/>
<path d="M695 925 c-24 -23 -29 -43 -25 -95 5 -58 57 -96 118 -86 68 11 105
73 82 141 -15 47 -44 65 -103 65 -38 0 -53 -5 -72 -25z"/>
<path d="M1219 921 c-67 -68 -14 -181 85 -181 38 0 84 37 95 76 20 73 -28 134
-107 134 -35 0 -49 -6 -73 -29z"/>
<path d="M514 649 c-43 -12 -66 -41 -71 -92 -4 -36 -1 -48 22 -75 31 -37 81
-50 126 -32 41 17 59 47 59 97 0 72 -64 121 -136 102z"/>
<path d="M1003 649 c-98 -29 -97 -180 2 -205 43 -11 103 12 120 46 33 64 11
130 -51 156 -18 8 -35 14 -36 13 -2 0 -17 -5 -35 -10z"/>
<path d="M1505 653 c-39 -7 -64 -26 -80 -60 -29 -61 6 -137 70 -149 101 -19
168 76 115 164 -11 17 -21 32 -22 32 -2 0 -17 4 -33 8 -17 5 -39 7 -50 5z"/>
<path d="M200 342 c-69 -34 -81 -113 -26 -168 38 -38 77 -44 126 -19 36 19 50
43 50 89 0 53 -18 83 -62 100 -48 20 -46 20 -88 -2z"/>
<path d="M725 345 c-39 -20 -55 -46 -57 -94 -3 -95 99 -146 171 -85 59 50 46
150 -23 179 -44 18 -53 18 -91 0z"/>
<path d="M1255 346 c-40 -17 -55 -37 -62 -80 -15 -93 72 -155 157 -111 114 59
22 243 -95 191z"/>
<path d="M1774 344 c-37 -18 -58 -53 -58 -98 0 -91 104 -139 173 -80 61 51 48
150 -24 180 -43 18 -52 17 -91 -2z"/>
</g>
</svg>
